<svg xmlns="http://www.w3.org/2000/svg" xmlns:xlink="http://www.w3.org/1999/xlink" width="500" zoomAndPan="magnify" viewBox="0 0 375 225" height="300" preserveAspectRatio="xMidYMid meet" version="1.0"><defs><g/><clipPath id="9fa469b92a"><rect x="0" width="138" y="0" height="83"/></clipPath><clipPath id="c18796b062"><rect x="0" width="62" y="0" height="20"/></clipPath><clipPath id="c586be2350"><rect x="0" width="299" y="0" height="187"/></clipPath></defs><rect x="-37.5" width="450" fill="#ffffff" y="-22.5" height="270" fill-opacity="1"/><rect x="-37.5" width="450" fill="#e4e2dd" y="-22.5" height="270" fill-opacity="1"/><g transform="matrix(1, 0, 0, 1, 44, 20)"><g clip-path="url(#c586be2350)"><g fill="#1e1e1e" fill-opacity="1"><g transform="translate(2.60952, 130.661029)"><g><path d="M 44.046875 -57.234375 L 44.046875 -23.234375 L 50.171875 -23.234375 L 50.171875 -57.234375 Z M 11.34375 11.890625 L 4.28125 4.828125 C 2.789062 4.210938 1.550781 3.191406 0.5625 1.765625 C -0.425781 0.335938 -0.921875 -1.175781 -0.921875 -2.78125 L -0.921875 -79.359375 C -0.921875 -83.691406 0.59375 -87.34375 3.625 -90.3125 C 6.65625 -93.289062 10.28125 -94.78125 14.5 -94.78125 L 57.796875 -94.78125 C 62.878906 -94.78125 67.523438 -93.570312 71.734375 -91.15625 C 75.941406 -88.738281 79.285156 -85.546875 81.765625 -81.578125 L 86.78125 -76.75 C 89.382812 -74.144531 91.429688 -71.140625 92.921875 -67.734375 C 94.410156 -64.328125 95.15625 -60.644531 95.15625 -56.6875 L 95.15625 -13.9375 C 95.15625 -8.738281 93.914062 -4.003906 91.4375 0.265625 C 88.957031 4.546875 85.578125 7.957031 81.296875 10.5 C 77.023438 13.039062 72.289062 14.3125 67.09375 14.3125 L 16.71875 14.3125 C 14.738281 14.3125 12.945312 13.503906 11.34375 11.890625 Z M 11.34375 11.890625 "/></g></g></g><g fill="#1e1e1e" fill-opacity="1"><g transform="translate(99.804613, 130.661029)"><g><path d="M 4.28125 4.828125 C 2.789062 4.210938 1.550781 3.191406 0.5625 1.765625 C -0.425781 0.335938 -0.921875 -1.175781 -0.921875 -2.78125 L -0.921875 -79.359375 C -0.921875 -83.691406 0.59375 -87.34375 3.625 -90.3125 C 6.65625 -93.289062 10.28125 -94.78125 14.5 -94.78125 L 45.90625 -94.78125 C 48.75 -94.78125 51.410156 -94.035156 53.890625 -92.546875 C 56.367188 -91.054688 58.226562 -89.078125 59.46875 -86.609375 C 59.59375 -88.835938 60.457031 -90.753906 62.0625 -92.359375 C 63.675781 -93.972656 65.597656 -94.78125 67.828125 -94.78125 L 78.984375 -94.78125 C 80.710938 -94.78125 82.289062 -94.253906 83.71875 -93.203125 C 85.144531 -92.148438 86.164062 -90.878906 86.78125 -89.390625 L 93.671875 -82.515625 C 95.273438 -80.898438 96.078125 -79.101562 96.078125 -77.125 L 96.078125 6.5 C 96.078125 8.488281 95.300781 10.285156 93.75 11.890625 C 92.207031 13.503906 90.382812 14.3125 88.28125 14.3125 L 42.75 14.3125 C 40.757812 14.3125 38.960938 13.503906 37.359375 11.890625 L 34.9375 9.484375 C 34.320312 10.835938 33.363281 11.976562 32.0625 12.90625 C 30.757812 13.84375 29.363281 14.3125 27.875 14.3125 L 16.71875 14.3125 C 14.738281 14.3125 12.945312 13.503906 11.34375 11.890625 Z M 4.28125 4.828125 "/></g></g></g><g fill="#1e1e1e" fill-opacity="1"><g transform="translate(198.858114, 130.661029)"><g><path d="M -0.921875 -65.96875 C -0.921875 -71.300781 0.34375 -76.132812 2.875 -80.46875 C 5.414062 -84.800781 8.851562 -88.269531 13.1875 -90.875 C 17.53125 -93.476562 22.363281 -94.78125 27.6875 -94.78125 L 57.796875 -94.78125 C 62.878906 -94.78125 67.523438 -93.570312 71.734375 -91.15625 C 75.941406 -88.738281 79.285156 -85.546875 81.765625 -81.578125 L 86.78125 -76.75 C 89.382812 -74.144531 91.429688 -71.140625 92.921875 -67.734375 C 94.410156 -64.328125 95.15625 -60.644531 95.15625 -56.6875 L 95.15625 6.5 C 95.15625 8.488281 94.378906 10.285156 92.828125 11.890625 C 91.273438 13.503906 89.445312 14.3125 87.34375 14.3125 L 67.828125 14.3125 C 65.847656 14.3125 64.050781 13.503906 62.4375 11.890625 L 55.375 5.015625 C 53.894531 4.398438 52.65625 3.347656 51.65625 1.859375 C 50.664062 0.367188 50.171875 -1.175781 50.171875 -2.78125 L 50.171875 -3.34375 L 44.046875 -3.34375 L 44.046875 6.5 C 44.046875 8.488281 43.269531 10.285156 41.71875 11.890625 C 40.175781 13.503906 38.347656 14.3125 36.234375 14.3125 L 16.71875 14.3125 C 14.738281 14.3125 12.945312 13.503906 11.34375 11.890625 L 4.28125 4.828125 C 2.789062 4.210938 1.550781 3.191406 0.5625 1.765625 C -0.425781 0.335938 -0.921875 -1.175781 -0.921875 -2.78125 Z M 44.046875 -40.890625 L 50.171875 -40.890625 L 50.171875 -57.234375 L 44.046875 -57.234375 Z M 44.046875 -40.890625 "/></g></g></g><g transform="matrix(1, 0, 0, 1, 74, 46)"><g clip-path="url(#9fa469b92a)"><g fill="#e4e2dd" fill-opacity="1"><g transform="translate(0.582473, 64.914562)"><g><path d="M 14.984375 0 L 4.5625 0 L 4.5625 -45.59375 L 17.265625 -45.59375 L 31.59375 -18.234375 L 32.890625 -18.234375 L 32.890625 -45.59375 L 43.3125 -45.59375 L 43.3125 0 L 30.609375 0 L 16.28125 -27.359375 L 14.984375 -27.359375 Z M 14.984375 0 "/></g></g></g><g fill="#e4e2dd" fill-opacity="1"><g transform="translate(48.450944, 64.914562)"><g><path d="M 35.828125 0 L 4.5625 0 L 4.5625 -45.59375 L 35.828125 -45.59375 L 35.828125 -36.15625 L 14.984375 -36.15625 L 14.984375 -27.359375 L 34.53125 -27.359375 L 34.53125 -18.234375 L 14.984375 -18.234375 L 14.984375 -9.453125 L 35.828125 -9.453125 Z M 35.828125 0 "/></g></g></g><g fill="#e4e2dd" fill-opacity="1"><g transform="translate(87.527256, 64.914562)"><g><path d="M 24.75 0.65625 C 20.664062 0.65625 16.929688 -0.351562 13.546875 -2.375 C 10.160156 -4.394531 7.488281 -7.1875 5.53125 -10.75 C 3.582031 -14.3125 2.609375 -18.328125 2.609375 -22.796875 C 2.609375 -27.273438 3.582031 -31.289062 5.53125 -34.84375 C 7.488281 -38.40625 10.160156 -41.195312 13.546875 -43.21875 C 16.929688 -45.238281 20.664062 -46.25 24.75 -46.25 C 28.832031 -46.25 32.566406 -45.238281 35.953125 -43.21875 C 39.335938 -41.195312 42.007812 -38.40625 43.96875 -34.84375 C 45.925781 -31.289062 46.90625 -27.273438 46.90625 -22.796875 C 46.90625 -18.328125 45.925781 -14.3125 43.96875 -10.75 C 42.007812 -7.1875 39.335938 -4.394531 35.953125 -2.375 C 32.566406 -0.351562 28.832031 0.65625 24.75 0.65625 Z M 24.75 -9.453125 C 26.925781 -9.453125 28.90625 -10.003906 30.6875 -11.109375 C 32.46875 -12.210938 33.878906 -13.773438 34.921875 -15.796875 C 35.960938 -17.816406 36.484375 -20.148438 36.484375 -22.796875 C 36.484375 -25.441406 35.960938 -27.773438 34.921875 -29.796875 C 33.878906 -31.816406 32.46875 -33.378906 30.6875 -34.484375 C 28.90625 -35.597656 26.925781 -36.15625 24.75 -36.15625 C 22.582031 -36.15625 20.609375 -35.597656 18.828125 -34.484375 C 17.046875 -33.378906 15.632812 -31.816406 14.59375 -29.796875 C 13.550781 -27.773438 13.03125 -25.441406 13.03125 -22.796875 C 13.03125 -20.148438 13.550781 -17.816406 14.59375 -15.796875 C 15.632812 -13.773438 17.046875 -12.210938 18.828125 -11.109375 C 20.609375 -10.003906 22.582031 -9.453125 24.75 -9.453125 Z M 24.75 -9.453125 "/></g></g></g></g></g><g transform="matrix(1, 0, 0, 1, 17, 118)"><g clip-path="url(#c18796b062)"><g fill="#e4e2dd" fill-opacity="1"><g transform="translate(0.855683, 15.706704)"><g><path d="M 1.699219 -3.324219 C 1.433594 -2.539062 0.988281 -1.699219 0.429688 -1.136719 C 0.753906 -0.945312 1.300781 -0.53125 1.566406 -0.308594 C 2.140625 -0.960938 2.703125 -2.007812 3.058594 -2.984375 Z M 5.199219 -9.617188 C 5.050781 -9.070312 4.785156 -8.316406 4.566406 -7.785156 L 2.820312 -7.785156 L 3.53125 -7.976562 C 3.472656 -8.421875 3.28125 -9.113281 3.027344 -9.617188 Z M 7.429688 -3.722656 L 7.429688 -5.199219 L 4.992188 -5.199219 L 4.992188 -6.335938 L 7.667969 -6.335938 L 7.667969 -7.785156 L 6.128906 -7.785156 C 6.351562 -8.242188 6.558594 -8.820312 6.796875 -9.382812 L 5.585938 -9.617188 L 7.445312 -9.617188 L 7.445312 -11.050781 L 5.113281 -11.050781 C 4.949219 -11.539062 4.699219 -12.113281 4.476562 -12.585938 L 2.910156 -12.21875 C 3.058594 -11.863281 3.21875 -11.449219 3.351562 -11.050781 L 0.828125 -11.050781 L 0.828125 -9.617188 L 2.820312 -9.617188 L 1.609375 -9.320312 C 1.816406 -8.863281 1.980469 -8.242188 2.054688 -7.785156 L 0.605469 -7.785156 L 0.605469 -6.335938 L 3.414062 -6.335938 L 3.414062 -5.199219 L 0.695312 -5.199219 L 0.695312 -3.722656 L 3.414062 -3.722656 L 3.414062 -0.605469 C 3.414062 -0.441406 3.367188 -0.398438 3.207031 -0.398438 C 3.042969 -0.398438 2.585938 -0.398438 2.140625 -0.414062 C 2.347656 0 2.554688 0.605469 2.613281 1.019531 C 3.398438 1.019531 3.988281 1.003906 4.433594 0.769531 C 4.875 0.515625 4.992188 0.148438 4.992188 -0.5625 L 4.992188 -3.722656 Z M 14.257812 -7.652344 L 9.71875 -7.652344 L 9.71875 -9.972656 C 11.167969 -10.238281 12.691406 -10.605469 13.917969 -11.078125 L 12.558594 -12.363281 C 11.492188 -11.863281 9.707031 -11.40625 8.082031 -11.109375 L 8.082031 -5.925781 C 8.082031 -4.503906 8.035156 -2.835938 7.578125 -1.386719 C 7.328125 -1.933594 6.839844 -2.808594 6.398438 -3.472656 L 5.246094 -2.835938 C 5.65625 -2.15625 6.160156 -1.226562 6.398438 -0.621094 L 7.5625 -1.359375 C 7.417969 -0.84375 7.195312 -0.355469 6.914062 0.0585938 C 7.28125 0.25 7.976562 0.796875 8.257812 1.109375 C 9.527344 -0.738281 9.71875 -3.753906 9.71875 -5.925781 L 9.71875 -6.027344 L 11.167969 -6.027344 L 11.167969 1.226562 L 12.882812 1.226562 L 12.882812 -6.027344 L 14.257812 -6.027344 Z M 14.257812 -7.652344 "/></g></g></g><g fill="#e4e2dd" fill-opacity="1"><g transform="translate(15.628857, 15.706704)"><g><path d="M 11.347656 -6.382812 L 11.347656 -7.960938 L 8.242188 -7.960938 C 8.289062 -8.582031 8.316406 -9.21875 8.332031 -9.898438 L 6.617188 -9.898438 C 6.605469 -9.203125 6.589844 -8.570312 6.542969 -7.960938 L 3.414062 -7.960938 L 3.414062 -6.382812 L 6.367188 -6.382812 C 6.042969 -4.609375 5.273438 -3.339844 3.292969 -2.496094 C 3.664062 -2.1875 4.136719 -1.523438 4.34375 -1.09375 C 5.996094 -1.832031 6.957031 -2.894531 7.503906 -4.226562 C 8.597656 -3.234375 9.660156 -2.082031 10.253906 -1.300781 L 11.480469 -2.378906 C 10.753906 -3.339844 9.308594 -4.710938 7.976562 -5.746094 C 8.023438 -5.953125 8.050781 -6.160156 8.082031 -6.382812 Z M 2.71875 -0.8125 L 2.71875 -10.445312 L 12.023438 -10.445312 L 12.023438 -0.8125 Z M 1.09375 -12.023438 L 1.09375 1.285156 L 2.71875 1.285156 L 2.71875 0.621094 L 12.023438 0.621094 L 12.023438 1.285156 L 13.738281 1.285156 L 13.738281 -12.023438 Z M 1.09375 -12.023438 "/></g></g></g><g fill="#e4e2dd" fill-opacity="1"><g transform="translate(30.402031, 15.706704)"><g><path d="M 10.53125 -9.5 C 10.089844 -10.148438 9.054688 -11.019531 8.257812 -11.625 L 7.105469 -10.621094 C 7.933594 -9.988281 8.894531 -9.042969 9.308594 -8.40625 Z M 10.121094 -5.628906 C 9.632812 -6.265625 8.539062 -7.179688 7.695312 -7.769531 L 6.574219 -6.765625 C 7.429688 -6.101562 8.464844 -5.15625 8.921875 -4.503906 Z M 6.382812 -4.476562 C 6.101562 -4.816406 4.890625 -6.203125 4.460938 -6.617188 L 4.460938 -6.738281 L 6.410156 -6.738281 L 6.410156 -8.375 L 4.460938 -8.375 L 4.460938 -10.398438 C 5.140625 -10.546875 5.792969 -10.726562 6.367188 -10.945312 L 5.378906 -12.378906 C 4.152344 -11.878906 2.304688 -11.417969 0.621094 -11.167969 C 0.8125 -10.785156 1.035156 -10.207031 1.09375 -9.808594 C 1.640625 -9.867188 2.1875 -9.957031 2.761719 -10.046875 L 2.761719 -8.375 L 0.53125 -8.375 L 0.53125 -6.738281 L 2.527344 -6.738281 C 1.996094 -5.304688 1.167969 -3.722656 0.339844 -2.777344 C 0.605469 -2.335938 0.988281 -1.609375 1.152344 -1.109375 C 1.726562 -1.847656 2.273438 -2.894531 2.761719 -4.03125 L 2.761719 1.285156 L 4.460938 1.285156 L 4.460938 -4.710938 C 4.816406 -4.121094 5.171875 -3.5 5.347656 -3.085938 Z M 14.375 -2.761719 L 14.09375 -4.402344 L 12.632812 -4.152344 L 12.632812 -12.511719 L 10.902344 -12.511719 L 10.902344 -3.855469 L 6.160156 -3.042969 L 6.441406 -1.375 L 10.902344 -2.140625 L 10.902344 1.269531 L 12.632812 1.269531 L 12.632812 -2.453125 Z M 14.375 -2.761719 "/></g></g></g><g fill="#e4e2dd" fill-opacity="1"><g transform="translate(45.175204, 15.706704)"><g><path d="M 5.421875 -6.234375 L 4.0625 -5.894531 L 4.0625 -8.082031 L 5.511719 -8.082031 L 5.511719 -9.707031 L 4.0625 -9.707031 L 4.0625 -12.511719 L 2.320312 -12.511719 L 2.320312 -9.707031 L 0.621094 -9.707031 L 0.621094 -8.082031 L 2.320312 -8.082031 L 2.320312 -5.464844 C 1.609375 -5.289062 0.976562 -5.140625 0.429688 -5.039062 L 0.886719 -3.367188 L 2.320312 -3.722656 L 2.320312 -0.679688 C 2.320312 -0.457031 2.261719 -0.382812 2.039062 -0.382812 C 1.847656 -0.382812 1.242188 -0.382812 0.664062 -0.398438 C 0.871094 0.0585938 1.09375 0.753906 1.167969 1.195312 C 2.203125 1.195312 2.910156 1.152344 3.398438 0.886719 C 3.898438 0.605469 4.0625 0.191406 4.0625 -0.664062 L 4.0625 -4.195312 C 4.59375 -4.328125 5.125 -4.476562 5.644531 -4.625 Z M 11.597656 -5.4375 C 11.152344 -4.433594 10.519531 -3.558594 9.75 -2.820312 C 9.011719 -3.574219 8.421875 -4.460938 8.007812 -5.4375 Z M 12.703125 -7.089844 L 12.394531 -7.015625 L 10.621094 -7.015625 L 10.621094 -8.789062 L 13.929688 -8.789062 L 13.929688 -10.414062 L 10.621094 -10.414062 L 10.621094 -12.527344 L 8.878906 -12.527344 L 8.878906 -10.414062 L 5.703125 -10.414062 L 5.703125 -8.789062 L 8.878906 -8.789062 L 8.878906 -7.015625 L 5.96875 -7.015625 L 5.96875 -5.4375 L 6.738281 -5.4375 L 6.292969 -5.304688 C 6.824219 -3.945312 7.519531 -2.777344 8.390625 -1.789062 C 7.355469 -1.121094 6.160156 -0.648438 4.859375 -0.339844 C 5.183594 0.0429688 5.613281 0.78125 5.804688 1.253906 C 7.238281 0.828125 8.539062 0.238281 9.691406 -0.5625 C 10.710938 0.265625 11.9375 0.871094 13.371094 1.300781 C 13.621094 0.84375 14.121094 0.132812 14.492188 -0.222656 C 13.175781 -0.546875 12.039062 -1.035156 11.078125 -1.714844 C 12.320312 -2.953125 13.265625 -4.566406 13.828125 -6.617188 Z M 12.703125 -7.089844 "/></g></g></g></g></g></g></g></svg>